# AST/ASF file generated using VICON BodyLanguage
# -----------------------------------------------
:version 1.10
:name VICON
:units
  mass 1.0
  length 0.45
  angle deg
:documentation
   .ast/.asf automatically generated from VICON data using
   VICON BodyBuilder and BodyLanguage model FoxedUp or BRILLIANT.MOD
:root
   order TX TY TZ RX RY RZ
   axis XYZ
   position 0 0 0  
   orientation 0 0 0 
:bonedata
  begin
     id 1 
     name lhipjoint
     direction 0.631061 -0.684803 0.364427 
     length 2.59943 
     axis 0 0 0  XYZ
  end
  begin
     id 2 
     name lfemur
     direction 0.34202 -0.939693 0  
     length 6.69088  
     axis 0 0 20  XYZ
    dof rx ry rz
    limits (-160.0 20.0)
           (-70.0 70.0)
           (-60.0 70.0)
  end
  begin
     id 3 
     name ltibia
     direction 0.34202 -0.939693 0   
     length 7.83506   
     axis 0 0 20   XYZ
    dof rx
    limits (-10.0 170.0)
  end
  begin
     id 4 
     name lfoot
     direction 0.176279 -0.484322 0.856947   
     length 2.95235   
     axis -90 7.62852e-016 20   XYZ
    dof rx rz
    limits (-45.0 90.0)
           (-70.0 20.0)
  end
  begin
     id 5 
     name ltoes
     direction 1.53551e-011 -4.21828e-011 1   
     length 1.41888   
     axis -90 7.62852e-016 20   XYZ
    dof rx
    limits (-90.0 20.0)
  end
  begin
     id 6 
     name rhipjoint
     direction -0.641155 -0.677457 0.360518   
     length 2.62761  
     axis 0 0 0  XYZ 
  end
  begin
     id 7 
     name rfemur
     direction -0.34202 -0.939693 0   
     length 6.52283   
     axis 0 0 -20   XYZ
    dof rx ry rz
    limits (-160.0 20.0)
           (-70.0 70.0)
           (-70.0 60.0)
  end
  begin
     id 8 
     name rtibia
     direction -0.34202 -0.939693 0   
     length 7.74138   
     axis 0 0 -20   XYZ
    dof rx
    limits (-10.0 170.0)
 end
 begin
     id 9 
     name rfoot
     direction -0.186474 -0.512334 0.838297   
     length 2.72941  
     axis -90 -7.62852e-016 -20   XYZ
    dof rx rz
    limits (-45.0 90.0)
           (-20.0 70.0)
  end
  begin
     id 10 
     name rtoes
     direction -1.53683e-011 -4.22007e-011 1   
     length 1.30521   
     axis -90 -7.62852e-016 -20   XYZ
    dof rx
    limits (-90.0 20.0)
  end
  begin
     id 11 
     name lowerback
     direction -0.0121201 0.985605 -0.168631   
     length 2.60975   
     axis 0 0 0   XYZ
    dof rx ry rz
    limits (-20.0 45.0)
           (-30.0 30.0)
           (-30.0 30.0)
  end
  begin
     id 12 
     name upperback
     direction -0.019495 0.999568 -0.0220039   
     length 2.65091   
     axis 0 0 0   XYZ
    dof rx ry rz
    limits (-20.0 45.0)
           (-30.0 30.0)
           (-30.0 30.0)
  end
  begin
     id 13 
     name thorax
     direction -0.0125765 0.998661 0.0501718   
     length 2.70267   
     axis 0 0 0   XYZ
    dof rx ry rz
    limits (-20.0 45.0)
           (-30.0 30.0)
           (-30.0 30.0)
  end
  begin
     id 14 
     name lowerneck
     direction -0.0309438 0.997491 -0.0636732   
     length 1.56498   
     axis 0 0 0   XYZ
    dof rx ry rz
    limits (-20.0 45.0)
           (-30.0 30.0)
           (-30.0 30.0)
  end
  begin
     id 15 
     name upperneck
     direction -0.00130017 0.992397 -0.123074   
     length 1.5414   
     axis 0 0 0   XYZ
    dof rx ry rz
    limits (-20.0 45.0)
           (-30.0 30.0)
           (-30.0 30.0)
  end
  begin
     id 16
     name head
     direction 0.00242507 0.999315 -0.0369171  
     length 1.60129  
     axis 0 0 0   XYZ
    dof rx ry rz
    limits (-20.0 45.0)
           (-30.0 30.0)
           (-30.0 30.0)
  end
  begin
     id 17 
     name lclavicle
     direction 0.996744 0.0363396 -0.0719802  
     length 4.63989  
     axis 0 0 0   XYZ
    dof ry rz
    limits (-20.0 10.0)
           (0.0 20.0)
  end
  begin
     id 18 
     name lhumerus
     direction 1 -4.49035e-011 -2.38432e-027   
     length 4.58161   
     axis 180 -30 -90   XYZ
    dof rx ry rz
    limits (-60.0 90.0)
           (-90.0 90.0)
           (-90.0 90.0)
  end
  begin
     id 19
     name lradius
     direction 1 0.000357117 -0.000206182   
     length 3.43782   
     axis 180 -30 -90   XYZ
    dof rx
    limits (-10.0 170.0)
  end
  begin
     id 20
     name lwrist
     direction 1 -7.34592e-005 -0.000404398   
     length 1.71891   
     axis 7.40711e-015 90 90   XYZ
    dof ry
    limits (-180.0 0.0)
 end
  begin
     id 21 
     name lhand
     direction 1 -4.48735e-011 -2.22254e-026   
     length 1.04662   
     axis 1.41817e-014 90 90   XYZ
    dof rx rz
    limits (-90.0 90.0)
           (-45.0 45.0)
  end
  begin
     id 22 
     name lfingers
     direction 1 -4.49414e-011 -4.44507e-026   
     length 0.843814   
     axis 2.83634e-014 90 90   XYZ
    dof rx
    limits (0.0 90.0)
  end
  begin
     id 23
     name lthumb
     direction 0.707107 -6.3482e-011 0.707107   
     length 1.21155   
     axis -90 45 2.85299e-015   XYZ
    dof rx rz
    limits (-45.0 45.0)
           (-45.0 45.0)
  end
  begin
     id 24 
     name rclavicle
     direction -0.997328 0.0105626 0.0722925   
     length 4.0272  
     axis 0 0 0   XYZ 
    dof ry rz
    limits (-10.0 20.0)
           (-20.0 0.0)
  end
  begin
     id 25 
     name rhumerus
     direction -1 -4.48913e-011 -1.83378e-027  
     length 4.53415   
     axis 180 30 90   XYZ
    dof rx ry rz
    limits (-90.0 60.0)
           (-90.0 90.0)
           (-90.0 90.0)
  end
  begin
     id 26 
     name rradius
     direction -0.999999 0.00120542 -0.000695951   
     length 3.33298   
     axis 180 30 90   XYZ
    dof rx
    limits (-10.0 170.0)
  end
  begin
     id 27 
     name rwrist
     direction -0.999999 0.000362235 -0.0013361   
     length 1.66649   
     axis 7.40711e-015 -90 -90   XYZ
    dof ry
    limits (-180.0 0.0)
  end
  begin
     id 28
     name rhand
     direction -1 -4.49379e-011 -2.22254e-026   
     length 1.21477   
     axis 1.41817e-014 -90 -90   XYZ
    dof rx rz
    limits (-90.0 90.0)
           (-45.0 45.0)
  end
  begin
     id 29
     name rfingers
     direction -1 -4.48656e-011 -4.44507e-026   
     length 0.979378   
     axis 2.83634e-014 -90 -90   XYZ
    dof rx
    limits (0.0 90.0)
  end
  begin
     id 30
     name rthumb
     direction -0.707107 -6.35052e-011 0.707107   
     length 1.4062   
     axis -90 -45 -2.85299e-015   XYZ
    dof rx rz
    limits (-45.0 45.0)
           (-45.0 45.0)
  end
:hierarchy
  begin
    root lhipjoint rhipjoint lowerback
    lhipjoint lfemur
    lfemur ltibia
    ltibia lfoot
    lfoot ltoes
    rhipjoint rfemur
    rfemur rtibia
    rtibia rfoot
    rfoot rtoes
    lowerback upperback
    upperback thorax
    thorax lowerneck lclavicle rclavicle
    lowerneck upperneck
    upperneck head
    lclavicle lhumerus
    lhumerus lradius
    lradius lwrist
    lwrist lhand lthumb
    lhand lfingers
    rclavicle rhumerus
    rhumerus rradius
    rradius rwrist
    rwrist rhand rthumb
    rhand rfingers
  end

#!OML:ASF X:\für Bonn\!DataBase\2005_08_12_Daniel\c3d\Daniel.ASF
:FULLY-SPECIFIED
:DEGREES
1
root 0.997382 17.529 0.106659 -1.9181 -85.3197 -2.78175
lowerback 4.29362 -1.94367 0.782172
upperback -0.356488 -2.59942 -1.48599
thorax -2.87692 -1.32177 -1.79067
lowerneck -1.90662 0.706366 -3.95552
upperneck 10.0374 0.958524 0.853875
head 3.55997 0.307798 1.00422
rclavicle 1.46107e-014 1.19271e-014
rhumerus -14.4708 26.9718 -10.2797
rradius 23.0256
rwrist -36.4242
rhand -20.5265 -3.93923
rfingers 7.12502
rthumb 5.83153 -33.839
lclavicle 1.46107e-014 1.19271e-014
lhumerus -21.8131 24.3482 -4.32265
lradius 17.7185
lwrist -3.48371
lhand -27.4536 12.949
lfingers 7.12502
lthumb -0.858228 42.927
rfemur 3.13735 20.2829 20.8619
rtibia 24.6969
rfoot -28.8614 -23.0318
rtoes -14.6987
lfemur -0.898057 -10.3692 -17.8157
ltibia 31.9616
lfoot -26.3176 11.4485
ltoes -18.4349
2
root 0.998392 17.5291 0.106505 -1.906 -85.32 -2.79416
lowerback 4.31217 -1.93518 0.750437
upperback -0.356866 -2.58923 -1.47085
thorax -2.8852 -1.31606 -1.75739
lowerneck -1.9098 0.693273 -3.95643
upperneck 10.0526 0.940611 0.856884
head 3.56642 0.298684 1.00491
rclavicle -2.16675e-014 -3.97569e-015
rhumerus -14.4635 26.8591 -10.2482
rradius 23.0038
rwrist -36.2458
rhand -20.5159 -3.91386
rfingers 7.12502
rthumb 5.84177 -33.8133
lclavicle -2.16675e-014 -3.97569e-015
lhumerus -21.7847 24.5947 -4.33056
lradius 17.6897
lwrist -3.74122
lhand -27.4559 12.9029
lfingers 7.12502
lthumb -0.860394 42.8809
rfemur 3.14277 20.3525 20.8842
rtibia 24.6972
rfoot -28.8896 -23.0933
rtoes -14.6846
lfemur -0.903436 -10.366 -17.8121
ltibia 31.9623
lfoot -26.3127 11.445
ltoes -18.435
3
root 0.999013 17.5291 0.106811 -1.92796 -85.3534 -2.77358
lowerback 4.33584 -1.93282 0.70679
upperback -0.370533 -2.58759 -1.44561
thorax -2.90937 -1.31445 -1.70601
lowerneck -1.84288 0.699763 -3.95801
upperneck 10.0277 0.94848 0.826267
head 3.54464 0.301348 0.994457
rclavicle 1.0635e-014 1.59028e-015
rhumerus -14.4018 26.947 -10.2009
rradius 22.9993
rwrist -36.2842
rhand -20.5012 -3.92624
rfingers 7.12502
rthumb 5.85595 -33.8253
lclavicle 1.0635e-014 1.59028e-015
lhumerus -21.798 24.437 -4.29064
lradius 17.7125
lwrist -3.61201
lhand -27.5412 12.9885
lfingers 7.12502
lthumb -0.942752 42.9661
rfemur 3.14377 20.417 20.8917
rtibia 24.6965
rfoot -28.8985 -23.1212
rtoes -14.6781
lfemur -0.89428 -10.3646 -17.8237
ltibia 31.9615
lfoot -26.3196 11.4742
ltoes -18.4316
4
root 0.999795 17.5293 0.106962 -1.92785 -85.3609 -2.77322
lowerback 4.33859 -1.92989 0.706591
upperback -0.356554 -2.58429 -1.46398
thorax -2.89724 -1.31291 -1.72521
lowerneck -1.80986 0.691233 -3.91801
upperneck 9.99122 0.932339 0.842671
head 3.52591 0.296233 0.991649
rclavicle 1.27968e-014 3.97569e-015
rhumerus -14.3869 26.8573 -10.2292
rradius 22.956
rwrist -36.1819
rhand -20.474 -3.85548
rfingers 7.12502
rthumb 5.88221 -33.7538
lclavicle 1.27968e-014 3.97569e-015
lhumerus -21.7499 24.4493 -4.30273
lradius 17.7091
lwrist -3.66831
lhand -27.4938 12.9304
lfingers 7.12502
lthumb -0.897056 42.9083
rfemur 3.14319 20.416 20.8889
rtibia 24.6954
rfoot -28.8956 -23.1123
rtoes -14.676
lfemur -0.90094 -10.3259 -17.8144
ltibia 31.9614
lfoot -26.3116 11.4447
ltoes -18.4349
5
root 1.00004 17.5293 0.10639 -1.91689 -85.3717 -2.78308
lowerback 4.33835 -1.92745 0.679839
upperback -0.349402 -2.58253 -1.46679
thorax -2.8886 -1.31159 -1.7134
lowerneck -1.80071 0.683535 -3.89873
upperneck 9.98141 0.920628 0.843261
head 3.52102 0.291367 0.987873
rclavicle 3.12589e-014 3.18055e-015
rhumerus -14.3892 27.0198 -10.248
rradius 22.9753
rwrist -36.3614
rhand -20.5882 -3.78483
rfingers 7.12502
rthumb 5.77191 -33.6862
lclavicle 3.12589e-014 3.18055e-015
lhumerus -21.7026 24.4782 -4.30819
lradius 17.686
lwrist -3.71258
lhand -27.5429 12.9037
lfingers 7.12502
lthumb -0.944472 42.8814
rfemur 3.14791 20.4788 20.9086
rtibia 24.6945
rfoot -28.9171 -23.1599
rtoes -14.6657
lfemur -0.901742 -10.3151 -17.81
ltibia 31.9619
lfoot -26.3125 11.443
ltoes -18.4347
6
root 1.00101 17.5294 0.107685 -1.91739 -85.3858 -2.78469
lowerback 4.36804 -1.92016 0.660214
upperback -0.355772 -2.57306 -1.44313
thorax -2.90951 -1.3064 -1.67759
lowerneck -1.79288 0.676852 -3.95106
upperneck 9.99609 0.911907 0.860708
head 3.52494 0.285334 1.0026
rclavicle -1.49585e-014 -8.34896e-015
rhumerus -14.3484 26.9675 -10.1882
rradius 22.9764
rwrist -36.3407
rhand -20.554 -3.80275
rfingers 7.12502
rthumb 5.80492 -33.7032
lclavicle -1.49585e-014 -8.34896e-015
lhumerus -21.683 24.1191 -4.19497
lradius 17.7029
lwrist -3.34059
lhand -27.6258 12.8727
lfingers 7.12502
lthumb -1.02453 42.85
rfemur 3.14125 20.4592 20.8928
rtibia 24.6923
rfoot -28.8952 -23.13
rtoes -14.6745
lfemur -0.897989 -10.3226 -17.8211
ltibia 31.963
lfoot -26.3148 11.4664
ltoes -18.4329
